<svg version="1.1" xmlns="http://www.w3.org/2000/svg" width="500" height="500">

<path d="M0 0 C0.95611176 -0.01139008 1.91222351 -0.02278015 2.89730835 -0.03451538 C12.91013307 -0.14522075 22.9237037 -0.19261013 32.93701172 -0.23535156 C37.69128479 -0.25763315 42.4447737 -0.29940702 47.19873047 -0.35839844 C52.93174584 -0.42940794 58.66402264 -0.46617268 64.39745522 -0.47846985 C66.58359058 -0.48888492 68.76970298 -0.51134321 70.95558739 -0.54606628 C74.01814425 -0.59219707 77.07779853 -0.59428116 80.140625 -0.5859375 C81.04320541 -0.60953339 81.94578583 -0.63312927 82.87571716 -0.65744019 C86.48463014 -0.60987818 88.91309777 -0.54423001 91.81283855 1.72907734 C94.40387358 4.61847995 95.7742587 6.41141427 96.34667969 10.30541992 C95.89300609 13.22971921 95.36475828 16.05984373 94.64770508 18.93164062 C93.3306388 24.37391627 92.09749893 29.82496669 90.92114258 35.29882812 C90.57583214 36.8881062 90.23012559 38.47729827 89.8840332 40.06640625 C89.35150236 42.51247975 88.82128467 44.95894449 88.29785156 47.40698242 C87.78328027 49.80997122 87.25937252 52.21075954 86.73364258 54.61132812 C86.57838608 55.3476799 86.42312958 56.08403168 86.26316833 56.84269714 C85.121377 61.9970312 85.121377 61.9970312 82.89379883 64.22460938 C71.43259649 57.4155108 60.04346658 50.53465644 48.89379883 43.22460938 C49.20251004 41.432286 49.51588947 39.64076616 49.83129883 37.84960938 C50.00532227 36.851875 50.1793457 35.85414063 50.35864258 34.82617188 C50.89379883 32.22460938 50.89379883 32.22460938 51.89379883 30.22460938 C42.65379883 30.22460938 33.41379883 30.22460938 23.89379883 30.22460938 C23.56379883 32.86460937 23.23379883 35.50460938 22.89379883 38.22460938 C22.57422411 40.56026658 22.23399756 42.89181808 21.89379883 45.22460938 C22.41063232 45.58586914 22.92746582 45.94712891 23.45996094 46.31933594 C32.53514893 52.66405167 41.60615608 59.01399494 50.64379883 65.41210938 C56.34905699 69.44702478 62.07699918 73.44741512 67.83129883 77.41210938 C68.51224609 77.88221436 69.19319336 78.35231934 69.89477539 78.83666992 C73.29496243 81.19486438 73.29496243 81.19486438 76.89379883 83.22460938 C77.88379883 81.24460938 77.88379883 81.24460938 78.89379883 79.22460938 C79.90983739 85.0160292 79.85643119 88.68305918 77.89379883 94.22460938 C78.88379883 91.91460937 79.87379883 89.60460937 80.89379883 87.22460938 C83.42071997 89.75153051 83.27637035 90.83654084 83.39379883 94.34960938 C83.31706341 99.67923319 82.00657874 102.44139437 78.49926758 106.37304688 C75.10140881 110.29174531 73.45620947 114.12271361 72.32348633 119.15429688 C72.06696289 120.27964844 71.81043945 121.405 71.54614258 122.56445312 C71.28961914 123.73105469 71.0330957 124.89765625 70.76879883 126.09960938 C70.50454102 127.25847656 70.2402832 128.41734375 69.96801758 129.61132812 C68.72500622 135.13231765 67.56566927 140.60383958 66.89379883 146.22460938 C67.94567383 146.59585938 67.94567383 146.59585938 69.01879883 146.97460938 C78.49286115 151.09376691 86.81706973 158.42341873 91.08129883 167.84960938 C92.23665917 172.64879849 92.05112016 177.31268789 91.89379883 182.22460938 C90.90379883 182.22460938 89.91379883 182.22460938 88.89379883 182.22460938 C88.68625977 181.66773438 88.4787207 181.11085938 88.26489258 180.53710938 C83.68438303 169.19124471 76.14335894 163.55274501 65.89379883 157.22460938 C65.23379883 157.55460938 64.57379883 157.88460937 63.89379883 158.22460938 C64.62985352 158.68351563 65.3659082 159.14242187 66.12426758 159.61523438 C67.58799805 160.535625 67.58799805 160.535625 69.08129883 161.47460938 C70.04422852 162.07789063 71.0071582 162.68117188 71.99926758 163.30273438 C76.04034752 165.98588057 79.76086071 168.60789297 82.58129883 172.59960938 C82.97704102 173.14359375 83.3727832 173.68757812 83.78051758 174.24804688 C86.6723531 179.38232328 87.16700518 184.08151314 87.14379883 189.91210938 C87.1515332 191.86697266 87.1515332 191.86697266 87.15942383 193.86132812 C86.89379883 197.22460938 86.89379883 197.22460938 84.89379883 200.22460938 C84.7468457 199.60714844 84.59989258 198.9896875 84.44848633 198.35351562 C80.37547347 182.97438086 69.75134816 174.19803199 56.46020508 166.24414062 C55.90539963 165.93760559 55.35059418 165.63107056 54.77897644 165.31524658 C52.89379883 164.22460938 52.89379883 164.22460938 50.75532532 162.73699951 C42.93958736 157.71543351 35.78207576 157.41741562 26.80870438 157.55785942 C24.31901002 157.59650011 21.83160209 157.59771166 19.34164429 157.59010315 C14.06699427 157.5808444 8.79324512 157.61959289 3.51879883 157.66210938 C-2.61910815 157.70691771 -8.7562374 157.73177991 -14.89430618 157.71754646 C-17.34168018 157.72065491 -19.78737626 157.75432029 -22.23446655 157.78965759 C-23.73516806 157.79077913 -25.23587136 157.79057103 -26.73657227 157.78881836 C-28.04242279 157.80025375 -29.34827332 157.81168915 -30.69369507 157.82347107 C-34.99517795 157.06860258 -36.38377518 155.5606493 -39.10620117 152.22460938 C-41.25874661 148.99579122 -41.33723421 148.66032475 -40.84008789 145.08300781 C-40.73001404 144.28471558 -40.61994019 143.48642334 -40.50653076 142.66394043 C-39.89135729 138.91549964 -39.16461985 135.20320952 -38.36401367 131.49023438 C-38.19497528 130.69035095 -38.02593689 129.89046753 -37.85177612 129.06634521 C-37.31561116 126.53489187 -36.77338069 124.00478047 -36.23120117 121.47460938 C-35.87536276 119.79500015 -35.51989137 118.11531312 -35.16479492 116.43554688 C-33.23649265 107.34316358 -31.24044124 98.27117805 -29.10620117 89.22460938 C-25.89707989 89.86634286 -23.51903992 91.00823795 -20.72729492 92.70117188 C-19.89294922 93.20422852 -19.05860352 93.70728516 -18.19897461 94.22558594 C-17.32273437 94.76151367 -16.44649414 95.29744141 -15.54370117 95.84960938 C-14.65070313 96.39069336 -13.75770508 96.93177734 -12.83764648 97.48925781 C-6.53956679 101.31660519 -0.28179094 105.20197751 5.89379883 109.22460938 C5.77746525 110.74613017 5.65021013 112.26681661 5.51879883 113.78710938 C5.44918945 114.63402344 5.37958008 115.4809375 5.30786133 116.35351562 C4.81696185 119.75739408 3.89324129 122.93782502 2.89379883 126.22460938 C3.4588916 126.21937256 4.02398437 126.21413574 4.60620117 126.20874023 C7.16038913 126.18798516 9.71455936 126.17495397 12.26879883 126.16210938 C13.15825195 126.15373047 14.04770508 126.14535156 14.96411133 126.13671875 C15.81489258 126.13349609 16.66567383 126.13027344 17.54223633 126.12695312 C18.32775879 126.12171631 19.11328125 126.11647949 19.92260742 126.11108398 C21.89379883 126.22460938 21.89379883 126.22460938 23.89379883 127.22460938 C23.89379883 123.92460937 23.89379883 120.62460937 23.89379883 117.22460938 C24.55379883 116.89460938 25.21379883 116.56460938 25.89379883 116.22460938 C27.21379883 118.86460937 28.53379883 121.50460937 29.89379883 124.22460938 C29.54317383 123.33773437 29.19254883 122.45085937 28.83129883 121.53710938 C27.86305343 118.11597564 27.5320036 116.49291792 28.89379883 113.22460938 C31.45629883 111.91210938 31.45629883 111.91210938 33.89379883 111.22460938 C34.42380894 108.93815907 34.42380894 108.93815907 33.89379883 106.22460938 C31.81359252 104.28432726 29.91772772 102.79854134 27.58129883 101.22460938 C26.57619263 100.51848511 26.57619263 100.51848511 25.55078125 99.7980957 C23.34384348 98.25533534 21.1204682 96.73872551 18.89379883 95.22460938 C17.38558778 94.18742826 15.87777836 93.14966291 14.37036133 92.11132812 C11.22416712 89.94983332 8.0706786 87.79945816 4.91333008 85.65429688 C-1.33179161 81.40171947 -7.51409349 77.06014948 -13.69677734 72.7175293 C-14.49188721 72.15912354 -15.28699707 71.60071777 -16.10620117 71.02539062 C-16.80745117 70.53208252 -17.50870117 70.03877441 -18.23120117 69.53051758 C-19.84234224 68.408383 -21.47254896 67.31371085 -23.10620117 66.22460938 C-22.37969761 59.20743968 -20.93507159 52.42205589 -19.41870117 45.53710938 C-17.70903027 37.69066948 -16.0143258 29.84340314 -14.41088867 21.97460938 C-14.20610146 20.97182198 -14.20610146 20.97182198 -13.99717712 19.94877625 C-13.33464214 16.70154423 -12.67641708 13.45351416 -12.0234375 10.2043457 C-11.7864917 9.04185303 -11.5495459 7.87936035 -11.30541992 6.68164062 C-11.09747803 5.65014893 -10.88953613 4.61865723 -10.67529297 3.5559082 C-9.40955883 -1.62920345 -4.47210119 0.03626888 0 0 Z " fill="#1891C8" transform="translate(276.106201171875,145.775390625)" data-index="1" style="opacity: 1; visibility: visible;"></path>
<path d="M0 0 C16.5 0 33 0 50 0 C48.87498183 9.00014535 48.87498183 9.00014535 48.10791016 12.63330078 C47.93748199 13.44840118 47.76705383 14.26350159 47.59146118 15.103302 C47.31802383 16.3863472 47.31802383 16.3863472 47.0390625 17.6953125 C46.84782806 18.60521942 46.65659363 19.51512634 46.45956421 20.4526062 C45.85109024 23.34405643 45.23810116 26.2345278 44.625 29.125 C44.22106062 31.04160482 43.81741236 32.95827103 43.4140625 34.875 C43.2168158 35.81051697 43.01956909 36.74603394 42.81634521 37.7098999 C42.42555487 39.56379828 42.03545022 41.41784133 41.64605713 43.27203369 C40.79849003 47.29325555 39.93822059 51.30880664 39.00683594 55.31152344 C38.72356445 56.54676758 38.44029297 57.78201172 38.1484375 59.0546875 C37.90013184 60.09866699 37.65182617 61.14264648 37.39599609 62.21826172 C36.96586636 65.23977726 36.97093399 67.12502996 38 70 C39.8460736 71.88534302 39.8460736 71.88534302 42.26171875 73.41015625 C43.13376953 74.00763672 44.00582031 74.60511719 44.90429688 75.22070312 C45.82275391 75.82849609 46.74121094 76.43628906 47.6875 77.0625 C48.58662109 77.67416016 49.48574219 78.28582031 50.41210938 78.91601562 C55.11110511 82.14524098 55.11110511 82.14524098 59.96972656 85.12158203 C61.62109375 86.07421875 61.62109375 86.07421875 64 88 C64.5859375 90.796875 64.5859375 90.796875 64.375 93.75 C64.29378906 95.22726563 64.29378906 95.22726563 64.2109375 96.734375 C64.14132812 97.48203125 64.07171875 98.2296875 64 99 C60.13171045 97.58643432 56.83777723 95.76913635 53.3671875 93.55859375 C52.31402344 92.89279297 51.26085937 92.22699219 50.17578125 91.54101562 C49.08652344 90.84685547 47.99726563 90.15269531 46.875 89.4375 C44.70755126 88.05833021 42.53836012 86.68189373 40.3671875 85.30859375 C39.40925293 84.69814209 38.45131836 84.08769043 37.46435547 83.45874023 C34.99925202 81.88246306 34.99925202 81.88246306 32 81 C31.9395752 81.97791504 31.9395752 81.97791504 31.87792969 82.97558594 C31.332745 90.27485963 29.98341682 97.14851287 28.25 104.25 C27.70962624 106.52312618 27.17059329 108.79657147 26.6328125 111.0703125 C26.22530762 112.78589355 26.22530762 112.78589355 25.80957031 114.53613281 C24.52028364 120.05253792 23.31853386 125.58721258 22.125 131.125 C21.80257324 132.61821777 21.80257324 132.61821777 21.47363281 134.14160156 C20.98096332 136.42742515 20.48963056 138.71352388 20 141 C12.6197714 134.82964494 12.6197714 134.82964494 9.6875 131.3125 C6.85324415 127.98145323 3.95130907 124.72813383 1 121.5 C-0.66730006 119.66724268 -2.33399683 117.83393629 -4 116 C-4.71285156 115.21625 -5.42570312 114.4325 -6.16015625 113.625 C-6.78792969 112.92375 -7.41570312 112.2225 -8.0625 111.5 C-8.61035156 110.8915625 -9.15820312 110.283125 -9.72265625 109.65625 C-11 108 -11 108 -12 105 C-0.45 105 11.1 105 23 105 C23 84.87 23 64.74 23 44 C20.48375 50.125625 17.9675 56.25125 15.375 62.5625 C14.59431152 64.46201416 13.81362305 66.36152832 13.00927734 68.31860352 C12.36802009 69.88031199 11.72690171 71.44207749 11.0859375 73.00390625 C10.56959244 74.26129356 10.56959244 74.26129356 10.04281616 75.54408264 C8.40025648 79.55171568 6.76979734 83.56330666 5.17285156 87.58935547 C4.75599594 88.64025612 4.75599594 88.64025612 4.33071899 89.71238708 C3.58959534 91.58702338 2.85251051 93.46325498 2.11572266 95.33959961 C1 98 1 98 0 99 C-2.0708472 99.1584265 -4.14678029 99.25124422 -6.22265625 99.31640625 C-8.11274414 99.37924805 -8.11274414 99.37924805 -10.04101562 99.44335938 C-11.38150736 99.48317596 -12.7220022 99.52288814 -14.0625 99.5625 C-15.40691523 99.60568042 -16.7513166 99.64929456 -18.09570312 99.69335938 C-21.3970234 99.79985358 -24.69842236 99.9018646 -28 100 C-26.69540214 101.40528111 -25.39080057 102.81055876 -24.08618164 104.21582031 C-22.98345934 105.40917062 -21.88500325 106.60647678 -20.79077148 107.80761719 C-18.43177596 110.39560395 -16.08440582 112.92014941 -13.5390625 115.328125 C-11.64419049 117.17056972 -10.27239563 118.68971652 -9 121 C-11.03541117 129.16667021 -14.84286036 136.85997974 -18.1875 144.5625 C-20.105625 148.996875 -22.02375 153.43125 -24 158 C-38.19 158 -52.38 158 -67 158 C-63.62550607 147.87651822 -63.62550607 147.87651822 -61.89379883 143.8996582 C-61.50457245 143.00041122 -61.11534607 142.10116425 -60.71432495 141.17466736 C-60.29941803 140.22628494 -59.88451111 139.27790253 -59.45703125 138.30078125 C-59.01666534 137.2853273 -58.57629944 136.26987335 -58.12258911 135.22364807 C-57.17929566 133.04903964 -56.23440607 130.875123 -55.28805542 128.70184326 C-52.7746718 122.92861392 -50.27415636 117.14981772 -47.7734375 111.37109375 C-47.27373947 110.21691956 -46.77404144 109.06274536 -46.25920105 107.87359619 C-42.08997993 98.23306337 -37.99391804 88.56343425 -33.9375 78.875 C-27.63091254 63.82473686 -21.23815432 48.81230916 -14.8125 33.8125 C-14.35793427 32.75021179 -13.90336853 31.68792358 -13.43502808 30.59344482 C-12.13126426 27.54737063 -10.82571287 24.50206934 -9.51953125 21.45703125 C-9.13683075 20.56273911 -8.75413025 19.66844696 -8.35983276 18.74705505 C-5.65666877 12.45487972 -2.83544325 6.23797515 0 0 Z " fill="#030303" transform="translate(211,145)" data-index="2" style="opacity: 1;"></path>
<path d="M0 0 C2.22275413 3.3341312 2.1796974 3.82137423 1.625 7.5625 C1.1584814 10.77040184 1.1584814 10.77040184 1 14 C1.66 12.02 2.32 10.04 3 8 C5.52692114 10.52692114 5.38257153 11.61193147 5.5 15.125 C5.42326458 20.45462381 4.11277991 23.21678499 0.60546875 27.1484375 C-2.79239002 31.06713594 -4.43758936 34.89810424 -5.5703125 39.9296875 C-5.82683594 41.05503906 -6.08335937 42.18039062 -6.34765625 43.33984375 C-6.60417969 44.50644531 -6.86070312 45.67304688 -7.125 46.875 C-7.38925781 48.03386719 -7.65351563 49.19273437 -7.92578125 50.38671875 C-9.16879261 55.90770828 -10.32812956 61.37923021 -11 67 C-9.948125 67.37125 -9.948125 67.37125 -8.875 67.75 C0.59906232 71.86915753 8.9232709 79.19880936 13.1875 88.625 C14.34286034 93.42418912 14.15732133 98.08807852 14 103 C13.01 103 12.02 103 11 103 C10.79246094 102.443125 10.58492187 101.88625 10.37109375 101.3125 C5.7905842 89.96663534 -1.75043989 84.32813563 -12 78 C-12.99 78.495 -12.99 78.495 -14 79 C-13.26394531 79.45890625 -12.52789062 79.9178125 -11.76953125 80.390625 C-10.79371094 81.00421875 -9.81789063 81.6178125 -8.8125 82.25 C-7.84957031 82.85328125 -6.88664062 83.4565625 -5.89453125 84.078125 C-1.85345131 86.76127119 1.86706188 89.3832836 4.6875 93.375 C5.08324219 93.91898437 5.47898437 94.46296875 5.88671875 95.0234375 C8.77855428 100.15771391 9.27320635 104.85690377 9.25 110.6875 C9.25773437 112.64236328 9.25773437 112.64236328 9.265625 114.63671875 C9 118 9 118 7 121 C6.85304688 120.38253906 6.70609375 119.76507813 6.5546875 119.12890625 C2.48167464 103.74977148 -8.14245066 94.97342261 -21.43359375 87.01953125 C-21.9883992 86.71299622 -22.54320465 86.40646118 -23.11482239 86.09063721 C-25 85 -25 85 -27.13847351 83.51239014 C-34.95421146 78.49082414 -42.11172307 78.19280624 -51.08509445 78.33325005 C-53.5747888 78.37189074 -56.06219674 78.37310229 -58.55215454 78.36549377 C-63.82680456 78.35623503 -69.10055371 78.39498351 -74.375 78.4375 C-80.51290698 78.48230834 -86.65003622 78.50717054 -92.78810501 78.49293709 C-95.23547901 78.49604554 -97.68117509 78.52971091 -100.12826538 78.56504822 C-101.62896689 78.56616976 -103.12967019 78.56596165 -104.63037109 78.56420898 C-105.93622162 78.57564438 -107.24207214 78.58707977 -108.5874939 78.59886169 C-112.88897678 77.8439932 -114.277574 76.33603992 -117 73 C-119.15254544 69.77118184 -119.23103304 69.43571537 -118.73388672 65.85839844 C-118.62381287 65.0601062 -118.51373901 64.26181396 -118.40032959 63.43933105 C-117.78515611 59.69089026 -117.05841868 55.97860014 -116.2578125 52.265625 C-116.08877411 51.46574158 -115.91973572 50.66585815 -115.74557495 49.84173584 C-115.20940999 47.3102825 -114.66717952 44.7801711 -114.125 42.25 C-113.76916158 40.57039077 -113.41369019 38.89070375 -113.05859375 37.2109375 C-111.13029148 28.11855421 -109.13424006 19.04656868 -107 10 C-103.79087872 10.64173349 -101.41283875 11.78362858 -98.62109375 13.4765625 C-97.78674805 13.97961914 -96.95240234 14.48267578 -96.09277344 15.00097656 C-94.77841309 15.80486816 -94.77841309 15.80486816 -93.4375 16.625 C-92.54450195 17.16608398 -91.65150391 17.70716797 -90.73144531 18.26464844 C-84.43336562 22.09199582 -78.17558976 25.97736814 -72 30 C-72.11633358 31.52152079 -72.2435887 33.04220723 -72.375 34.5625 C-72.47941406 35.83287109 -72.47941406 35.83287109 -72.5859375 37.12890625 C-73.07683698 40.53278471 -74.00055754 43.71321565 -75 47 C-74.43490723 46.99476318 -73.86981445 46.98952637 -73.28759766 46.98413086 C-70.7334097 46.96337578 -68.17923947 46.9503446 -65.625 46.9375 C-64.73554688 46.92912109 -63.84609375 46.92074219 -62.9296875 46.91210938 C-62.07890625 46.90888672 -61.228125 46.90566406 -60.3515625 46.90234375 C-59.56604004 46.89710693 -58.78051758 46.89187012 -57.97119141 46.88647461 C-56 47 -56 47 -54 48 C-54 44.7 -54 41.4 -54 38 C-53.34 37.67 -52.68 37.34 -52 37 C-50.68 39.64 -49.36 42.28 -48 45 C-48.350625 44.113125 -48.70125 43.22625 -49.0625 42.3125 C-50.0307454 38.89136626 -50.36179523 37.26830855 -49 34 C-46.5 32.875 -46.5 32.875 -44 32 C-43.505 30.515 -43.505 30.515 -43 29 C-42.01 29 -41.02 29 -40 29 C-37.47087253 27.87171022 -35.023253 26.70000571 -32.5625 25.4375 C-31.84819824 25.07325928 -31.13389648 24.70901855 -30.39794922 24.33374023 C-28.25920596 23.23375362 -26.12820786 22.12021631 -24 21 C-22.88753906 20.41476563 -21.77507812 19.82953125 -20.62890625 19.2265625 C-12.47966376 14.71215769 -3.0273235 9.27728169 0 0 Z " fill="#1C99CD" transform="translate(354,225)" data-index="3" style="opacity: 1;"></path>
<path d="M0 0 C2.22275413 3.3341312 2.1796974 3.82137423 1.625 7.5625 C1.1584814 10.77040184 1.1584814 10.77040184 1 14 C1.66 12.02 2.32 10.04 3 8 C5.52692114 10.52692114 5.38257153 11.61193147 5.5 15.125 C5.40085858 21.43700347 3.13633154 24.48009887 -1 29 C-1.556875 29.86625 -2.11375 30.7325 -2.6875 31.625 C-6.47581679 35.51570373 -11.20396747 37.53603169 -16 40 C-17.59159732 40.8652718 -19.18130608 41.73402275 -20.76953125 42.60546875 C-22.47117899 43.52896869 -24.17300277 44.45214433 -25.875 45.375 C-26.69556885 45.82834717 -27.5161377 46.28169434 -28.36157227 46.7487793 C-29.53997681 47.37973511 -29.53997681 47.37973511 -30.7421875 48.0234375 C-31.4419873 48.40419434 -32.14178711 48.78495117 -32.86279297 49.17724609 C-35.39240571 50.1510632 -37.3096838 50.20428542 -40 50 C-43.96140518 48.17290292 -46.59694964 45.60457554 -49 42 C-50.09960492 38.70118525 -50.41496396 37.18366891 -49 34 C-46.5 32.875 -46.5 32.875 -44 32 C-43.67 31.01 -43.34 30.02 -43 29 C-42.01 29 -41.02 29 -40 29 C-37.47087253 27.87171022 -35.023253 26.70000571 -32.5625 25.4375 C-31.84819824 25.07325928 -31.13389648 24.70901855 -30.39794922 24.33374023 C-28.25920596 23.23375362 -26.12820786 22.12021631 -24 21 C-22.88753906 20.41476563 -21.77507812 19.82953125 -20.62890625 19.2265625 C-12.47966376 14.71215769 -3.0273235 9.27728169 0 0 Z " fill="#919495" transform="translate(354,225)" data-index="4" style="opacity: 1;"></path>
<path d="M0 0 C2.46390964 3.69586446 2.32366763 5.3353112 1.72265625 9.59765625 C-1.5996073 20.64193777 -15.78743714 27.81307803 -25.2109375 33 C-42.00211397 42 -42.00211397 42 -46 42 C-46 42.66 -46 43.32 -46 44 C-45.34 44.33 -44.68 44.66 -44 45 C-44.99 45 -45.98 45 -47 45 C-48.7674678 41.95995539 -50 39.80719026 -50 36.25 C-49 34 -49 34 -46.5 32.875 C-45.675 32.58625 -44.85 32.2975 -44 32 C-43.67 31.01 -43.34 30.02 -43 29 C-42.01 29 -41.02 29 -40 29 C-37.47087253 27.87171022 -35.023253 26.70000571 -32.5625 25.4375 C-31.84819824 25.07325928 -31.13389648 24.70901855 -30.39794922 24.33374023 C-28.25920596 23.23375362 -26.12820786 22.12021631 -24 21 C-22.88753906 20.41476563 -21.77507812 19.82953125 -20.62890625 19.2265625 C-12.47966376 14.71215769 -3.0273235 9.27728169 0 0 Z " fill="#95999B" transform="translate(354,225)" data-index="5" style="opacity: 1;"></path>
<path d="M0 0 C0.99 1.98 1.98 3.96 3 6 C3.99 4.02 4.98 2.04 6 0 C7.98 0 9.96 0 12 0 C12 5.94 12 11.88 12 18 C10.02 18 8.04 18 6 18 C5.67 17.34 5.34 16.68 5 16 C4.67 16.66 4.34 17.32 4 18 C3.34 18 2.68 18 2 18 C1.34 16.68 0.68 15.36 0 14 C-0.33 15.32 -0.66 16.64 -1 18 C-2.98 18 -4.96 18 -7 18 C-7 12.39 -7 6.78 -7 1 C-4.53721199 -0.231394 -2.7204945 -0.07159196 0 0 Z " fill="#111111" transform="translate(184,319)" data-index="6" style="opacity: 1;"></path>
<path d="M0 0 C1.6875 2.5625 1.6875 2.5625 3 5 C3.33 3.02 3.66 1.04 4 -1 C5.65 -1 7.3 -1 9 -1 C9 4.61 9 10.22 9 16 C7.35 16.33 5.7 16.66 4 17 C2.68 15.02 1.36 13.04 0 11 C-0.33 12.98 -0.66 14.96 -1 17 C-2.65 17 -4.3 17 -6 17 C-6 11.39 -6 5.78 -6 0 C-3 -1 -3 -1 0 0 Z " fill="#1B93C9" transform="translate(248,320)" data-index="7"></path>
<path d="M0 0 C2.63840764 1.03937271 3.54887645 2.4663835 5.0625 4.8125 C5.3925 3.1625 5.7225 1.5125 6.0625 -0.1875 C7.7125 -0.1875 9.3625 -0.1875 11.0625 -0.1875 C11.0625 5.4225 11.0625 11.0325 11.0625 16.8125 C9.7425 17.1425 8.4225 17.4725 7.0625 17.8125 C5.4125 15.5025 3.7625 13.1925 2.0625 10.8125 C1.7325 13.1225 1.4025 15.4325 1.0625 17.8125 C-0.5875 17.8125 -2.2375 17.8125 -3.9375 17.8125 C-3.9375 12.2025 -3.9375 6.5925 -3.9375 0.8125 C-1.9375 -0.1875 -1.9375 -0.1875 0 0 Z " fill="#050505" transform="translate(207.9375,319.1875)" data-index="8" style="opacity: 1;"></path>
<path d="M0 0 C0.625 1.875 0.625 1.875 1 4 C-1.5654594 6.5654594 -3.47686668 6.54046087 -7 7 C-7.33 8.65 -7.66 10.3 -8 12 C-7.34 11.67 -6.68 11.34 -6 11 C-6 9.68 -6 8.36 -6 7 C-3.03 7 -0.06 7 3 7 C2.76683515 11.04152406 2.5771041 13.33802764 -0.125 16.4375 C-3.78192219 18.42495771 -5.89651491 18.67147938 -10 18 C-13.19688909 15.29494 -13.90802205 13.64384566 -14.5 9.5 C-13.9231981 5.46238667 -12.85349783 3.85349783 -10 1 C-6.78548731 -0.60725635 -3.56387464 -0.05748185 0 0 Z " fill="#2396CA" transform="translate(294,319)" data-index="9" style="opacity: 1;"></path>
<path d="M0 0 C1.98 0 3.96 0 6 0 C6 5.61 6 11.22 6 17 C4.02 17 2.04 17 0 17 C0 15.68 0 14.36 0 13 C-0.99 13 -1.98 13 -3 13 C-3 14.65 -3 16.3 -3 18 C-4.65 18 -6.3 18 -8 18 C-8 12.39 -8 6.78 -8 1 C-6.35 1 -4.7 1 -3 1 C-3 3.31 -3 5.62 -3 8 C-2.01 8 -1.02 8 0 8 C0 5.36 0 2.72 0 0 Z " fill="#1E94C9" transform="translate(306,319)" data-index="10"></path>
<path d="M0 0 C2.31 0 4.62 0 7 0 C7.83919398 2.26882087 8.67151724 4.53977027 9.5 6.8125 C9.73847656 7.45509766 9.97695312 8.09769531 10.22265625 8.75976562 C11.27068746 11.64933739 12 13.90076061 12 17 C8.37 16.67 4.74 16.34 1 16 C1 16.66 1 17.32 1 18 C-0.65 18 -2.3 18 -4 18 C-3.31195504 11.80759538 -1.71951285 5.98044406 0 0 Z " fill="#111111" transform="translate(164,319)" data-index="11" style="opacity: 1;"></path>
<path d="M0 0 C2.31 0 4.62 0 7 0 C7.86772029 2.07772471 8.71873619 4.16243177 9.5625 6.25 C10.03816406 7.41015625 10.51382813 8.5703125 11.00390625 9.765625 C12 13 12 13 11 17 C8.03 16.67 5.06 16.34 2 16 C2 16.66 2 17.32 2 18 C0.02 18 -1.96 18 -4 18 C-3.35155914 13.80716882 -2.48783354 9.73500079 -1.4375 5.625 C-1.16808594 4.56539063 -0.89867187 3.50578125 -0.62109375 2.4140625 C-0.31365234 1.21910156 -0.31365234 1.21910156 0 0 Z " fill="#111111" transform="translate(133,319)" data-index="12" style="opacity: 1;"></path>
<path d="M0 0 C0.5625 1.9375 0.5625 1.9375 1 4 C0 5 0 5 -3.0625 5.0625 C-4.031875 5.041875 -5.00125 5.02125 -6 5 C-6 5.66 -6 6.32 -6 7 C-4.865625 7.144375 -3.73125 7.28875 -2.5625 7.4375 C1 8 1 8 2 9 C1.4 15.6 1.4 15.6 -1 18 C-3.6015625 18.1953125 -3.6015625 18.1953125 -6.625 18.125 C-8.12933594 18.09792969 -8.12933594 18.09792969 -9.6640625 18.0703125 C-10.43492187 18.04710937 -11.20578125 18.02390625 -12 18 C-11.625 15.5625 -11.625 15.5625 -11 13 C-10.34 12.67 -9.68 12.34 -9 12 C-9.495 11.608125 -9.99 11.21625 -10.5 10.8125 C-12 9 -12 9 -12.4375 6.5625 C-12 4 -12 4 -10.5 1.6875 C-6.87174359 -0.76157308 -4.32159775 -0.28810652 0 0 Z " fill="#2899CC" transform="translate(341,319)" data-index="13" style="opacity: 1;"></path>
<path d="M0 0 C0.33 1.65 0.66 3.3 1 5 C-1.31 5 -3.62 5 -6 5 C-6 5.66 -6 6.32 -6 7 C-4.865625 7.144375 -3.73125 7.28875 -2.5625 7.4375 C1 8 1 8 2 9 C2.4646439 14.34340485 2.4646439 14.34340485 0.80859375 16.68359375 C-1.62657492 18.45605993 -3.20937209 18.30353096 -6.1875 18.1875 C-7.53908203 18.14689453 -7.53908203 18.14689453 -8.91796875 18.10546875 C-9.60503906 18.07066406 -10.29210937 18.03585937 -11 18 C-11 16.35 -11 14.7 -11 13 C-10.34 12.67 -9.68 12.34 -9 12 C-9.66 11.34 -10.32 10.68 -11 10 C-11.375 6.5625 -11.375 6.5625 -11 3 C-7.97607007 -0.74967312 -4.54317809 -0.26210643 0 0 Z " fill="#2397CB" transform="translate(270,319)" data-index="14"></path>
<path d="M0 0 C1.63001953 0.01353516 1.63001953 0.01353516 3.29296875 0.02734375 C4.12441406 0.03894531 4.95585937 0.05054688 5.8125 0.0625 C5.8125 1.7125 5.8125 3.3625 5.8125 5.0625 C4.1625 5.0625 2.5125 5.0625 0.8125 5.0625 C0.8125 9.3525 0.8125 13.6425 0.8125 18.0625 C-0.8375 18.0625 -2.4875 18.0625 -4.1875 18.0625 C-4.1875 14.1025 -4.1875 10.1425 -4.1875 6.0625 C-5.8375 6.0625 -7.4875 6.0625 -9.1875 6.0625 C-9.1875 4.4125 -9.1875 2.7625 -9.1875 1.0625 C-5.90230525 -0.03256492 -3.45086585 -0.03710608 0 0 Z " fill="#1C93C9" transform="translate(322.1875,318.9375)" data-index="15"></path>
<path d="M0 0 C1.65 0 3.3 0 5 0 C5 3.96 5 7.92 5 12 C6.98 12 8.96 12 11 12 C11 13.65 11 15.3 11 17 C8.11788698 17.96070434 6.30149956 18.10581883 3.3125 18.0625 C2.10013672 18.04896484 2.10013672 18.04896484 0.86328125 18.03515625 C0.24839844 18.02355469 -0.36648437 18.01195312 -1 18 C-1.02684312 15.18743719 -1.04676188 12.37512759 -1.0625 9.5625 C-1.07087891 8.76005859 -1.07925781 7.95761719 -1.08789062 7.13085938 C-1.0965143 5.08704779 -1.0522815 3.04316098 -1 1 C-0.67 0.67 -0.34 0.34 0 0 Z " fill="#202020" transform="translate(147,319)" data-index="16" style="opacity: 1;"></path>
<path d="M0 0 C0.495 1.485 0.495 1.485 1 3 C-9.72455632 15.47948371 -28.26516669 24.50433334 -44 29 C-44 28.34 -44 27.68 -44 27 C-42.80246094 26.45472656 -41.60492188 25.90945313 -40.37109375 25.34765625 C-25.51835745 18.50457494 -11.69131514 11.63629719 0 0 Z " fill="#2592C3" transform="translate(352,240)" data-index="17" style="opacity: 1;"></path>
<path d="M0 0 C1.98 0 3.96 0 6 0 C6 5.94 6 11.88 6 18 C4.02 18 2.04 18 0 18 C0 12.06 0 6.12 0 0 Z " fill="#2C9BCD" transform="translate(273,319)" data-index="18" style="opacity: 1;"></path>
<path d="M0 0 C1.98 0 3.96 0 6 0 C6.02684312 2.81256281 6.04676188 5.62487241 6.0625 8.4375 C6.07087891 9.23994141 6.07925781 10.04238281 6.08789062 10.86914062 C6.0965143 12.91295221 6.0522815 14.95683902 6 17 C5.67 17.33 5.34 17.66 5 18 C3.35 18 1.7 18 0 18 C0 12.06 0 6.12 0 0 Z " fill="#191919" transform="translate(197,319)" data-index="19"></path>
<path d="M0 0 C9.86245164 3.55403663 18.69474767 10.94986368 24 20 C25.08296527 24.2631014 24.99812485 28.01875146 24.5625 32.375 C24.46066406 33.43460937 24.35882813 34.49421875 24.25390625 35.5859375 C24.17011719 36.38257813 24.08632813 37.17921875 24 38 C23.67 38 23.34 38 23 38 C22.97421875 37.23816406 22.9484375 36.47632813 22.921875 35.69140625 C22.46634829 27.39874958 21.21271063 20.85525276 15.8125 14.375 C10.48021539 9.87218188 5.14165816 5.36800609 -1 2 C-0.67 1.34 -0.34 0.68 0 0 Z " fill="#D6F3FB" transform="translate(340,302)" data-index="20" style="opacity: 1;"></path>
<path d="M0 0 C1.65 0 3.3 0 5 0 C5 5.94 5 11.88 5 18 C3.35 18 1.7 18 0 18 C0 12.06 0 6.12 0 0 Z " fill="#1D94C9" transform="translate(235,319)" data-index="21"></path>
<path d="M0 0 C2.18975773 3.28463659 2.99806563 6.20696275 4 10 C6.97 10.495 6.97 10.495 10 11 C10 11.33 10 11.66 10 12 C7.36 12 4.72 12 2 12 C2 13.65 2 15.3 2 17 C1.34 16.67 0.68 16.34 0 16 C0 10.72 0 5.44 0 0 Z " fill="#C1E2F0" transform="translate(257,320)" data-index="22"></path>
<path d="M0 0 C3.17661443 2.9460537 3.69016466 4.58484637 4 9 C3.77962219 13.01292612 3.42035029 17.00343879 3 21 C2.67 21 2.34 21 2 21 C1.93941406 20.23816406 1.87882812 19.47632813 1.81640625 18.69140625 C1.30963298 12.44640026 0.7260533 6.22331399 0 0 Z " fill="#B0EEFE" transform="translate(361,319)" data-index="23"></path>
<path d="M0 0 C0.66 0.33 1.32 0.66 2 1 C2 4.63 2 8.26 2 12 C1.34 10.68 0.68 9.36 0 8 C-3.54588501 6.70079254 -3.54588501 6.70079254 -7 6 C-7 5.34 -7 4.68 -7 4 C-4.69 4 -2.38 4 0 4 C0 2.68 0 1.36 0 0 Z " fill="#E7F3F9" transform="translate(271,320)" data-index="24"></path>
<path d="M0 0 C0.66 0.33 1.32 0.66 2 1 C2.40632091 2.98645776 2.72949547 4.99053778 3 7 C3.32635698 8.66804677 3.65725594 10.33524314 4 12 C0.7661562 9.18342636 -0.66714367 7.32713231 -1 3 C-0.67 2.01 -0.34 1.02 0 0 Z " fill="#F1F3F4" transform="translate(303,259)" data-index="25"></path>
<path d="M0 0 C1.98 0.495 1.98 0.495 4 1 C3.67 2.32 3.34 3.64 3 5 C1.68 5 0.36 5 -1 5 C-0.67 3.35 -0.34 1.7 0 0 Z " fill="#272727" transform="translate(199,313)" data-index="26"></path>
<path d="M0 0 C1.485 0.99 1.485 0.99 3 2 C4.9896995 2.39013716 6.99019869 2.73202649 9 3 C9 3.33 9 3.66 9 4 C6.36 4 3.72 4 1 4 C0.67 4.66 0.34 5.32 0 6 C0 4.02 0 2.04 0 0 Z " fill="#F8FBFD" transform="translate(258,328)" data-index="27"></path>
</svg>